<svg width="39" height="56" fill="none" xmlns="http://www.w3.org/2000/svg"><path d="M1.85 41.926h34.881m-30.94 6.432h27m-14-47v14m.075-.716v26.432M29.925 4.41l-11.06 11.085m15.314-6.821L18.866 24.02m17.865-8.525L18.866 32.547m18.716-9.378L18.866 41.925m18.716-10.23L27.373 41.926M1 31.695l10.209 10.231M8.657 4.41l10.209 11.085M4.403 8.674L18.866 24.02M1.85 14.642l17.016 17.905M1 22.316l17.866 18.758m.425 13.642C9.191 54.716 1 46.263 1 35.836V19.88C1 9.454 9.19 1 19.291 1c10.103 0 18.291 8.454 18.291 18.88v15.955c.002 10.428-8.188 18.88-18.291 18.88z" stroke="#7EB693" stroke-width="2" stroke-miterlimit="10"/></svg>