<svg width="254" height="59" viewBox="0 0 254 59" fill="none" xmlns="http://www.w3.org/2000/svg">
<path d="M75.1357 28.2568V29.7729C75.1357 32.2046 74.8062 34.3872 74.147 36.3208C73.4878 38.2544 72.5576 39.9023 71.3564 41.2646C70.1553 42.6123 68.7197 43.645 67.0498 44.3628C65.3945 45.0806 63.5562 45.4395 61.5347 45.4395C59.5278 45.4395 57.6895 45.0806 56.0195 44.3628C54.3643 43.645 52.9287 42.6123 51.7129 41.2646C50.4971 39.9023 49.5522 38.2544 48.8784 36.3208C48.2192 34.3872 47.8896 32.2046 47.8896 29.7729V28.2568C47.8896 25.8105 48.2192 23.6279 48.8784 21.709C49.5376 19.7754 50.4678 18.1274 51.6689 16.7651C52.8848 15.4028 54.3203 14.3628 55.9756 13.645C57.6455 12.9272 59.4839 12.5684 61.4907 12.5684C63.5122 12.5684 65.3506 12.9272 67.0059 13.645C68.6758 14.3628 70.1113 15.4028 71.3125 16.7651C72.5283 18.1274 73.4658 19.7754 74.125 21.709C74.7988 23.6279 75.1357 25.8105 75.1357 28.2568ZM68.478 29.7729V28.2129C68.478 26.5137 68.3242 25.0195 68.0166 23.7305C67.709 22.4414 67.2549 21.3574 66.6543 20.4785C66.0537 19.5996 65.3213 18.9404 64.457 18.501C63.5928 18.0469 62.604 17.8198 61.4907 17.8198C60.3774 17.8198 59.3887 18.0469 58.5244 18.501C57.6748 18.9404 56.9497 19.5996 56.3491 20.4785C55.7632 21.3574 55.3164 22.4414 55.0088 23.7305C54.7012 25.0195 54.5474 26.5137 54.5474 28.2129V29.7729C54.5474 31.4575 54.7012 32.9517 55.0088 34.2554C55.3164 35.5444 55.7705 36.6357 56.3711 37.5293C56.9717 38.4082 57.7041 39.0747 58.5684 39.5288C59.4326 39.9829 60.4214 40.21 61.5347 40.21C62.6479 40.21 63.6367 39.9829 64.501 39.5288C65.3652 39.0747 66.0903 38.4082 66.6763 37.5293C67.2622 36.6357 67.709 35.5444 68.0166 34.2554C68.3242 32.9517 68.478 31.4575 68.478 29.7729ZM86.1745 25.7959V54.1406H79.8463V21.2256H85.713L86.1745 25.7959ZM101.226 32.8491V33.3105C101.226 35.0391 101.021 36.6431 100.61 38.1226C100.215 39.6021 99.629 40.8911 98.8527 41.9897C98.0763 43.0737 97.1095 43.9233 95.9523 44.5386C94.8097 45.1392 93.4913 45.4395 91.9972 45.4395C90.547 45.4395 89.2872 45.1465 88.2179 44.5605C87.1486 43.9746 86.2477 43.1543 85.5153 42.0996C84.7975 41.0303 84.2189 39.7925 83.7794 38.3862C83.34 36.98 83.0031 35.4712 82.7687 33.8599V32.6514C83.0031 30.9229 83.34 29.3408 83.7794 27.9053C84.2189 26.4551 84.7975 25.2026 85.5153 24.1479C86.2477 23.0786 87.1413 22.251 88.1959 21.665C89.2653 21.0791 90.5177 20.7861 91.9533 20.7861C93.4621 20.7861 94.7877 21.0718 95.9303 21.6431C97.0875 22.2144 98.0543 23.0347 98.8307 24.104C99.6217 25.1733 100.215 26.4478 100.61 27.9272C101.021 29.4067 101.226 31.0474 101.226 32.8491ZM94.8756 33.3105V32.8491C94.8756 31.8384 94.7877 30.9082 94.612 30.0586C94.4508 29.1943 94.1871 28.4399 93.8209 27.7954C93.4694 27.1509 93.0006 26.6528 92.4147 26.3013C91.8434 25.9351 91.1476 25.752 90.3273 25.752C89.463 25.752 88.7233 25.8911 88.108 26.1694C87.5075 26.4478 87.0167 26.8506 86.6359 27.3779C86.255 27.9053 85.9694 28.5352 85.7789 29.2676C85.5885 30 85.4713 30.8276 85.4274 31.7505V34.8047C85.5006 35.8887 85.7057 36.8628 86.0426 37.7271C86.3795 38.5767 86.8996 39.2505 87.6027 39.7485C88.3058 40.2466 89.2287 40.4956 90.3712 40.4956C91.2062 40.4956 91.9093 40.3125 92.4806 39.9463C93.0519 39.5654 93.5133 39.0454 93.8649 38.3862C94.2311 37.7271 94.4874 36.9653 94.6339 36.1011C94.7951 35.2368 94.8756 34.3066 94.8756 33.3105ZM121.691 21.2256V26.1914H111.803V45H105.475V21.2256H121.691ZM137.607 39.6387V29.0479C137.607 28.2861 137.483 27.6343 137.234 27.0923C136.985 26.5356 136.597 26.1035 136.069 25.7959C135.557 25.4883 134.89 25.3345 134.07 25.3345C133.367 25.3345 132.759 25.459 132.246 25.708C131.733 25.9424 131.338 26.2866 131.059 26.7407C130.781 27.1802 130.642 27.7002 130.642 28.3008H124.314C124.314 27.29 124.548 26.3306 125.017 25.4224C125.486 24.5142 126.167 23.7158 127.06 23.0273C127.954 22.3242 129.016 21.7749 130.247 21.3794C131.492 20.9839 132.883 20.7861 134.421 20.7861C136.267 20.7861 137.908 21.0938 139.343 21.709C140.779 22.3242 141.907 23.2471 142.727 24.4775C143.562 25.708 143.979 27.2461 143.979 29.0918V39.2651C143.979 40.5688 144.06 41.6382 144.221 42.4731C144.382 43.2935 144.617 44.0112 144.924 44.6265V45H138.53C138.223 44.3555 137.988 43.5498 137.827 42.583C137.681 41.6016 137.607 40.6201 137.607 39.6387ZM138.442 30.52L138.486 34.1016H134.949C134.114 34.1016 133.389 34.1968 132.773 34.3872C132.158 34.5776 131.653 34.8486 131.257 35.2002C130.862 35.5371 130.569 35.9326 130.378 36.3867C130.203 36.8408 130.115 37.3389 130.115 37.8809C130.115 38.4229 130.239 38.9136 130.488 39.353C130.737 39.7778 131.096 40.1147 131.565 40.3638C132.034 40.5981 132.583 40.7153 133.213 40.7153C134.165 40.7153 134.993 40.5249 135.696 40.144C136.399 39.7632 136.941 39.2944 137.322 38.7378C137.717 38.1812 137.922 37.6538 137.937 37.1558L139.607 39.8364C139.372 40.437 139.05 41.0596 138.64 41.7041C138.245 42.3486 137.739 42.9565 137.124 43.5278C136.509 44.0845 135.769 44.5459 134.905 44.9121C134.04 45.2637 133.015 45.4395 131.829 45.4395C130.32 45.4395 128.95 45.1392 127.72 44.5386C126.504 43.9233 125.537 43.0811 124.819 42.0117C124.116 40.9277 123.765 39.6973 123.765 38.3203C123.765 37.0752 123.999 35.9692 124.468 35.0024C124.936 34.0356 125.625 33.2227 126.533 32.5635C127.456 31.8896 128.606 31.3843 129.983 31.0474C131.36 30.6958 132.956 30.52 134.773 30.52H138.442ZM165.499 30.8276V35.7495H153.414V30.8276H165.499ZM155.523 21.2256V45H149.195V21.2256H155.523ZM169.784 21.2256V45H163.434V21.2256H169.784ZM181.372 36.167L189.348 21.2256H195.676V45H189.348V30.0366L181.372 45H175.044V21.2256H181.372V36.167ZM207.66 21.2256V45H201.331V21.2256H207.66ZM223.106 21.2256L212.867 36.1011H206.539L205.77 30.2563H209.967L215.086 21.2256H223.106ZM215.372 45L209.527 34.9585L215.042 31.9043L223.853 45H215.372ZM239.418 39.6387V29.0479C239.418 28.2861 239.294 27.6343 239.045 27.0923C238.796 26.5356 238.408 26.1035 237.88 25.7959C237.368 25.4883 236.701 25.3345 235.881 25.3345C235.178 25.3345 234.57 25.459 234.057 25.708C233.544 25.9424 233.149 26.2866 232.871 26.7407C232.592 27.1802 232.453 27.7002 232.453 28.3008H226.125C226.125 27.29 226.359 26.3306 226.828 25.4224C227.297 24.5142 227.978 23.7158 228.872 23.0273C229.765 22.3242 230.827 21.7749 232.058 21.3794C233.303 20.9839 234.694 20.7861 236.232 20.7861C238.078 20.7861 239.719 21.0938 241.154 21.709C242.59 22.3242 243.718 23.2471 244.538 24.4775C245.373 25.708 245.791 27.2461 245.791 29.0918V39.2651C245.791 40.5688 245.871 41.6382 246.032 42.4731C246.193 43.2935 246.428 44.0112 246.735 44.6265V45H240.341C240.034 44.3555 239.799 43.5498 239.638 42.583C239.492 41.6016 239.418 40.6201 239.418 39.6387ZM240.253 30.52L240.297 34.1016H236.76C235.925 34.1016 235.2 34.1968 234.584 34.3872C233.969 34.5776 233.464 34.8486 233.068 35.2002C232.673 35.5371 232.38 35.9326 232.189 36.3867C232.014 36.8408 231.926 37.3389 231.926 37.8809C231.926 38.4229 232.05 38.9136 232.299 39.353C232.548 39.7778 232.907 40.1147 233.376 40.3638C233.845 40.5981 234.394 40.7153 235.024 40.7153C235.976 40.7153 236.804 40.5249 237.507 40.144C238.21 39.7632 238.752 39.2944 239.133 38.7378C239.528 38.1812 239.733 37.6538 239.748 37.1558L241.418 39.8364C241.184 40.437 240.861 41.0596 240.451 41.7041C240.056 42.3486 239.55 42.9565 238.935 43.5278C238.32 44.0845 237.58 44.5459 236.716 44.9121C235.852 45.2637 234.826 45.4395 233.64 45.4395C232.131 45.4395 230.761 45.1392 229.531 44.5386C228.315 43.9233 227.348 43.0811 226.63 42.0117C225.927 40.9277 225.576 39.6973 225.576 38.3203C225.576 37.0752 225.81 35.9692 226.279 35.0024C226.748 34.0356 227.436 33.2227 228.344 32.5635C229.267 31.8896 230.417 31.3843 231.794 31.0474C233.171 30.6958 234.768 30.52 236.584 30.52H240.253Z" fill="#274C5B"/>
<path d="M1.85071 42.9263H19.291H36.7313" stroke="#7EB693" stroke-width="2" stroke-miterlimit="10"/>
<path d="M5.79102 49.3579H19.291H32.791" stroke="#7EB693" stroke-width="2" stroke-miterlimit="10"/>
<path d="M18.791 2.35791V9.35791V16.3579" stroke="#7EB693" stroke-width="2" stroke-miterlimit="10"/>
<path d="M18.8656 15.6421V42.0737" stroke="#7EB693" stroke-width="2" stroke-miterlimit="10"/>
<path d="M29.9253 5.41064L18.8656 16.4949" stroke="#7EB693" stroke-width="2" stroke-miterlimit="10"/>
<path d="M34.179 9.67383L18.8656 25.0212" stroke="#7EB693" stroke-width="2" stroke-miterlimit="10"/>
<path d="M36.7313 16.4946L18.8656 33.5473" stroke="#7EB693" stroke-width="2" stroke-miterlimit="10"/>
<path d="M37.582 24.1685L18.8656 42.9264" stroke="#7EB693" stroke-width="2" stroke-miterlimit="10"/>
<path d="M37.5821 32.6948L27.3731 42.9264" stroke="#7EB693" stroke-width="2" stroke-miterlimit="10"/>
<path d="M1 32.6948L11.209 42.9264" stroke="#7EB693" stroke-width="2" stroke-miterlimit="10"/>
<path d="M8.65668 5.41064L18.8656 16.4949" stroke="#7EB693" stroke-width="2" stroke-miterlimit="10"/>
<path d="M4.40295 9.67383L18.8656 25.0212" stroke="#7EB693" stroke-width="2" stroke-miterlimit="10"/>
<path d="M1.85071 15.6421L18.8656 33.5474" stroke="#7EB693" stroke-width="2" stroke-miterlimit="10"/>
<path d="M1 23.3159L18.8657 42.0738" stroke="#7EB693" stroke-width="2" stroke-miterlimit="10"/>
<path d="M19.291 55.7158C9.19019 55.7158 1 47.2635 1 36.8351V20.8806C1 10.4542 9.19019 2 19.291 2C29.3937 2 37.5821 10.4542 37.5821 20.8806V36.8351C37.5839 47.2635 29.3937 55.7158 19.291 55.7158Z" stroke="#7EB693" stroke-width="2" stroke-miterlimit="10"/>
</svg>
