<svg width="254" height="59" fill="none" xmlns="http://www.w3.org/2000/svg"><path d="M75.136 28.257v1.516c0 2.432-.33 4.614-.989 6.548-.66 1.933-1.59 3.581-2.79 4.944a12.097 12.097 0 01-4.307 3.098c-1.656.718-3.494 1.077-5.515 1.077-2.007 0-3.845-.36-5.515-1.077a12.361 12.361 0 01-4.307-3.098c-1.216-1.363-2.16-3.01-2.835-4.944-.659-1.934-.988-4.116-.988-6.548v-1.516c0-2.447.33-4.63.988-6.548.66-1.934 1.59-3.582 2.79-4.944a12.237 12.237 0 014.308-3.12c1.67-.718 3.508-1.077 5.515-1.077 2.021 0 3.86.36 5.515 1.077a11.98 11.98 0 014.306 3.12c1.216 1.362 2.154 3.01 2.813 4.944.674 1.919 1.01 4.102 1.01 6.548zm-6.658 1.516v-1.56c0-1.7-.154-3.194-.461-4.483-.308-1.289-.762-2.373-1.363-3.252-.6-.878-1.333-1.538-2.197-1.977-.864-.454-1.853-.681-2.966-.681-1.114 0-2.102.227-2.967.681-.85.44-1.574 1.099-2.175 1.977-.586.88-1.033 1.963-1.34 3.252-.308 1.29-.462 2.784-.462 4.483v1.56c0 1.684.154 3.179.462 4.482.307 1.29.761 2.38 1.362 3.274.6.88 1.333 1.546 2.197 2 .865.454 1.853.681 2.967.681 1.113 0 2.102-.227 2.966-.681.864-.454 1.59-1.12 2.175-2 .586-.893 1.033-1.985 1.34-3.274.308-1.303.462-2.798.462-4.482zm17.697-3.977V54.14h-6.329V21.226h5.867l.462 4.57zm15.051 7.053v.462c0 1.728-.205 3.332-.616 4.812-.395 1.48-.981 2.768-1.757 3.867a8.349 8.349 0 01-2.9 2.549c-1.143.6-2.462.9-3.956.9-1.45 0-2.71-.292-3.78-.879-1.068-.585-1.97-1.406-2.702-2.46-.718-1.07-1.296-2.308-1.736-3.714a29.319 29.319 0 01-1.01-4.526v-1.21c.234-1.728.571-3.31 1.01-4.746.44-1.45 1.019-2.702 1.736-3.757.733-1.07 1.626-1.897 2.68-2.483 1.07-.586 2.323-.879 3.758-.879 1.51 0 2.835.286 3.977.857a7.82 7.82 0 012.9 2.461c.792 1.07 1.385 2.344 1.78 3.823.411 1.48.616 3.12.616 4.922zm-6.35.462v-.462c0-1.01-.088-1.94-.264-2.79-.161-.865-.425-1.62-.791-2.264a3.846 3.846 0 00-1.406-1.494c-.572-.366-1.267-.549-2.088-.549-.864 0-1.604.14-2.219.417-.6.279-1.091.682-1.472 1.209s-.667 1.157-.857 1.89c-.19.732-.308 1.56-.352 2.482v3.055c.074 1.084.279 2.058.616 2.922.336.85.857 1.524 1.56 2.022.703.498 1.626.747 2.768.747.835 0 1.538-.184 2.11-.55.57-.38 1.032-.9 1.384-1.56.366-.659.622-1.42.769-2.285.161-.864.242-1.794.242-2.79zm26.815-12.085v4.965h-9.888V45h-6.328V21.226h16.216zm15.916 18.413V29.048c0-.762-.124-1.414-.373-1.956a2.778 2.778 0 00-1.165-1.296c-.512-.308-1.179-.462-1.999-.462-.703 0-1.311.125-1.824.374a2.643 2.643 0 00-1.187 1.033c-.278.44-.417.96-.417 1.56h-6.328c0-1.011.234-1.97.703-2.879.469-.908 1.15-1.706 2.043-2.395.894-.703 1.956-1.252 3.187-1.648 1.245-.395 2.636-.593 4.174-.593 1.846 0 3.487.308 4.922.923 1.436.615 2.564 1.538 3.384 2.768.835 1.231 1.252 2.77 1.252 4.615v10.173c0 1.304.081 2.373.242 3.208.161.82.396 1.538.703 2.154V45h-6.394c-.307-.645-.542-1.45-.703-2.417a19.985 19.985 0 01-.22-2.944zm.835-9.119l.044 3.582h-3.537c-.835 0-1.56.095-2.176.285-.615.19-1.12.462-1.516.813a3.153 3.153 0 00-.879 1.187 4.122 4.122 0 00-.263 1.494c0 .542.124 1.033.373 1.472a2.66 2.66 0 001.077 1.01c.469.235 1.018.352 1.648.352.952 0 1.78-.19 2.483-.571.703-.38 1.245-.85 1.626-1.406.395-.557.6-1.084.615-1.582l1.67 2.68a10.91 10.91 0 01-.967 1.868 8.715 8.715 0 01-1.516 1.824c-.615.556-1.355 1.018-2.219 1.384-.865.352-1.89.528-3.076.528-1.509 0-2.879-.3-4.109-.901-1.216-.616-2.183-1.458-2.901-2.527-.703-1.084-1.054-2.315-1.054-3.692 0-1.245.234-2.35.703-3.318a6.467 6.467 0 012.065-2.439c.923-.673 2.073-1.179 3.45-1.516 1.377-.351 2.973-.527 4.79-.527h3.669zm27.057.308v4.921h-12.085v-4.921h12.085zm-9.976-9.602V45h-6.328V21.226h6.328zm14.261 0V45h-6.35V21.226h6.35zm11.588 14.941l7.976-14.941h6.328V45h-6.328V30.037L181.372 45h-6.328V21.226h6.328v14.941zm26.288-14.941V45h-6.329V21.226h6.329zm15.446 0L212.867 36.1h-6.328l-.769-5.845h4.197l5.119-9.03h8.02zM215.372 45l-5.845-10.041 5.515-3.055L223.853 45h-8.481zm24.046-5.361V29.048c0-.762-.124-1.414-.373-1.956a2.778 2.778 0 00-1.165-1.296c-.512-.308-1.179-.462-1.999-.462-.703 0-1.311.125-1.824.374a2.635 2.635 0 00-1.186 1.033c-.279.44-.418.96-.418 1.56h-6.328c0-1.011.234-1.97.703-2.879.469-.908 1.15-1.706 2.044-2.395.893-.703 1.955-1.252 3.186-1.648 1.245-.395 2.636-.593 4.174-.593 1.846 0 3.487.308 4.922.923 1.436.615 2.564 1.538 3.384 2.768.835 1.231 1.253 2.77 1.253 4.615v10.173c0 1.304.08 2.373.241 3.208.161.82.396 1.538.703 2.154V45h-6.394c-.307-.645-.542-1.45-.703-2.417a19.985 19.985 0 01-.22-2.944zm.835-9.119l.044 3.582h-3.537c-.835 0-1.56.095-2.176.285-.615.19-1.12.462-1.516.813a3.153 3.153 0 00-.879 1.187 4.122 4.122 0 00-.263 1.494c0 .542.124 1.033.373 1.472a2.66 2.66 0 001.077 1.01c.469.235 1.018.352 1.648.352.952 0 1.78-.19 2.483-.571.703-.38 1.245-.85 1.626-1.406.395-.557.6-1.084.615-1.582l1.67 2.68a10.808 10.808 0 01-.967 1.868 8.715 8.715 0 01-1.516 1.824c-.615.556-1.355 1.018-2.219 1.384-.864.352-1.89.528-3.076.528-1.509 0-2.879-.3-4.109-.901-1.216-.616-2.183-1.458-2.901-2.527-.703-1.084-1.054-2.315-1.054-3.692 0-1.245.234-2.35.703-3.318a6.476 6.476 0 012.065-2.439c.923-.673 2.073-1.179 3.45-1.516 1.377-.351 2.974-.527 4.79-.527h3.669z" fill="#274C5B"/><path d="M1.85 42.926h34.881m-30.94 6.432h27m-14-47v14m.075-.716v26.432M29.925 5.41l-11.06 11.085m15.314-6.821L18.866 25.02m17.865-8.525L18.866 33.547m18.716-9.378L18.866 42.925m18.716-10.23L27.373 42.926M1 32.695l10.209 10.231M8.657 5.41l10.209 11.085M4.403 9.674L18.866 25.02M1.85 15.642l17.016 17.905M1 23.316l17.866 18.758m.425 13.642C9.191 55.716 1 47.263 1 36.836V20.88C1 10.454 9.19 2 19.291 2c10.103 0 18.291 8.454 18.291 18.88v15.955c.002 10.428-8.188 18.88-18.291 18.88z" stroke="#7EB693" stroke-width="2" stroke-miterlimit="10"/></svg>